<?xml version="1.0" encoding="utf-8"?>
<!-- Generator: Adobe Illustrator 28.3.0, SVG Export Plug-In . SVG Version: 6.00 Build 0)  -->
<svg version="1.1" id="Layer_1" xmlns="http://www.w3.org/2000/svg" xmlns:xlink="http://www.w3.org/1999/xlink" x="0px" y="0px"
	 viewBox="0 0 220 1119" style="enable-background:new 0 0 220 1119;" xml:space="preserve">
<style type="text/css">
	.st0{fill:#FFFFFF;}
	.st1{fill:#FFF4E6;}
	.st2{fill:#514B43;}
	.st3{fill:#FF9A15;}
</style>
<g>
	<polygon class="st0" points="176.7,1090.9 185.9,1103.7 197.3,1090.6 	"/>
</g>
<g>
	<polygon class="st0" points="123,1104.5 132.1,1119 142,1104.5 	"/>
</g>
<g>
	<polygon class="st0" points="69.4,1105 80.2,1119 91.8,1105 	"/>
</g>
<g>
	<polygon class="st0" points="20.4,1093.5 27.9,1107.5 40.3,1093.5 	"/>
</g>
<g>
	<path class="st1" d="M220,17.3v1025.3c0,2-0.1,4.1-0.2,6.2c-1,15.9-5.7,33.4-16.6,42.5c-3.1,2.6-6.6,4.5-10.7,5.5
		c-18.4,4.5-29.3-7.4-29.3-7.4s-4.2,15.1-24.7,19c-21.4,4.2-31-15.9-31-15.9s-6,20.5-29.5,19.5c-16.5-0.7-26.5-23.8-26.5-23.8
		s-13.4,20-32,7.2C2.7,1083.8,0,1060,0,1042.7V17.3C0,7.8,5.4,0,12,0h196C214.6,0,220,7.8,220,17.3z"/>
</g>
<path class="st2" d="M220,704.3v131.4c-8.7,4-18.3,6.3-28.5,6.3c-38.4,0-69.5-32.2-69.5-72c0-28.2,15.6-52.5,38.3-64.4
	c9.4-4.9,20-7.6,31.2-7.6C201.7,698,211.3,700.3,220,704.3z"/>
<path class="st3" d="M96,896c0,42.5-29.6,77-66,77c-10.8,0-21-3-30-8.4V827.4c9-5.4,19.2-8.4,30-8.4C66.4,819,96,853.5,96,896z"/>
<path class="st3" d="M133,501c0,39.2-17.6,73.6-44.1,93.1C74.3,604.8,57,611,38.5,611c-13.7,0-26.7-3.4-38.5-9.5v-201
	c11.8-6.1,24.8-9.5,38.5-9.5C90.7,391,133,440.2,133,501z"/>
<path class="st2" d="M220,359.3v124.4c-4.1,1.5-8.5,2.3-13,2.3c-5.2,0-10.2-1.1-14.9-3c-19.8-8.3-34.1-32.7-34.1-61.5
	c0-35.6,21.9-64.5,49-64.5C211.5,357,215.9,357.8,220,359.3z"/>
<path class="st2" d="M220,428.2v116.6c-16.6-10.3-28-32.6-28-58.3c0-1.2,0-2.4,0.1-3.5C193.1,458.7,204.2,438.1,220,428.2z"/>
<path class="st2" d="M92,614c0,37-31.1,67-69.5,67c-7.9,0-15.4-1.3-22.5-3.6V550.6c7.1-2.3,14.6-3.6,22.5-3.6
	c31.2,0,57.6,19.8,66.4,47.1C90.9,600.4,92,607.1,92,614z"/>
<path class="st2" d="M220,963v79.7c0,2-0.1,4.1-0.2,6.2c-7.2,3-15.2,4.8-23.7,5.1c-8.9,0.3-17.4-1.1-25.1-3.9
	c-19.6-7.1-33.4-23-34-42c-0.9-26.4,24.2-48.6,55.9-49.7C202.6,958,211.9,959.7,220,963z"/>
<path class="st3" d="M220,646.8v85.3c-4.4,1.2-9.1,1.9-14,1.9c-20.8,0-38.6-11.8-45.7-28.4c-2.1-5-3.3-10.5-3.3-16.1
	c0-24.6,21.9-44.5,49-44.5C210.9,645,215.6,645.6,220,646.8z"/>
<path class="st3" d="M220,1005v37.7c0,2-0.1,4.1-0.2,6.2c-1,15.9-5.7,33.4-16.6,42.5c-18.6-6.2-32-22.3-32.2-41.3c0-0.2,0-0.4,0-0.5
	C171,1024.9,192.9,1005,220,1005z"/>
<path class="st2" d="M85,214c0,43.6-31.1,79-69.5,79c-5.3,0-10.5-0.7-15.5-2V137c5-1.3,10.2-2,15.5-2C53.9,135,85,170.4,85,214z"/>
<path class="st3" d="M220,50.9V213c-28.7-12.6-49-44.2-49-81.1S191.3,63.6,220,50.9z"/>
<ellipse class="st3" cx="157" cy="265.5" rx="29" ry="35.5"/>
<ellipse class="st2" cx="43.5" cy="754" rx="17.5" ry="25"/>
<ellipse class="st2" cx="65.5" cy="1053" rx="19.5" ry="25"/>
</svg>
