<?xml version="1.0" encoding="utf-8"?>
<!-- Generator: Adobe Illustrator 28.3.0, SVG Export Plug-In . SVG Version: 6.00 Build 0)  -->
<svg version="1.1" id="Layer_1" xmlns="http://www.w3.org/2000/svg" xmlns:xlink="http://www.w3.org/1999/xlink" x="0px" y="0px"
	 viewBox="0 0 700 488" style="enable-background:new 0 0 700 488;" xml:space="preserve">
<style type="text/css">
	.st0{fill:#E09027;}
	.st1{fill:#D38424;}
	.st2{fill:#B7711C;}
	.st3{fill:#EDA856;}
	.st4{fill:#AD6918;}
	.st5{fill:#F2BD7C;}
	.st6{fill:#9E5702;}
	.st7{fill:#C17923;}
	.st8{fill:#A85E05;}
	.st9{fill:#965500;}
</style>
<g>
	<g>
		<path class="st0" d="M412.2,58.2c-12.4-3.5-24.7-7.1-37.1-10.6c-11.3-3.2-22.6-6.5-34.1-8.8c-15-3-30.3-4.3-45.6-5.6
			c-10.4-0.8-20.7-1.7-31.1-1.9c-37.7-0.8-75.6,6.5-110.4,21c6.1-22.1,26.3-40.2,49.3-42.5c11.9-1.2,23.8,1.4,35.8,2.5
			c39.7,3.9,81.7-7.3,118.7,7.8c11.1,4.5,21.2,11.3,31.2,18C397.3,43.9,406.2,50.3,412.2,58.2z"/>
	</g>
	<g>
		<path class="st1" d="M418.5,78.7l-266-14c0.3-3.2,0.7-9.3,1.6-12.4c25.4-18.6,72.7-25.4,110.4-24.6c10.4,0.2,21.6-0.8,32,0
			c15.3,1.2,34,6,49,9c11.5,2.3,21.7,5.8,33,9c12.4,3.5,21.4,8.9,33.8,12.4C416,63,417.7,72.5,418.5,78.7z"/>
	</g>
	<g>
		<path class="st2" d="M522.3,378.5c-18.5,31-56.8,45.9-91.8,57.4c-22.3,7.4-44.7,14.6-67.5,20.1c-67.2,16.4-137.9,18.3-205.9,5.6
			c-21.8-4.1-43.8-9.8-62.6-21.6c-15.9-10-28.9-24-41.1-38.2c-6.6-7.8-13.2-15.8-17.4-25.1c-2.5-5.4-4.1-11.2-5.2-17.1
			c27.8,27.1,56.5,57.7,92.4,67.7c23.1,6.5,49.2,5.8,73.2,6.2c40.7,0.7,81.5-7.1,122.2-6.5c22.7,0.3,45.4,0.5,67.9-2.7
			c47.1-6.6,90.8-27.8,133.2-49.6C520.5,375.9,521.3,377.2,522.3,378.5z"/>
	</g>
	<g>
		<path class="st0" d="M215.7,359.3c-7.8,25.4-18,49.9-29.2,74c-21.2-0.2-43.4-0.5-63.4-6c-35.9-10.1-64.7-40.6-92.4-67.7
			c-1.3-6.9-1.8-13.9-2.1-20.9c-1.4-32.1,2-64.2,9.8-95.3c0,0,0,0,0,0c22.8-34.8,43.4-71.3,56.1-110.9c1.1-3.5,1.4-7.7,1.7-12.1
			c6.9-9.4,14.2-18.5,22-27.1c4.6-5.1,9.3-10.1,14.3-14.8c20.9,18,37.9,40.5,54.5,62.7c12.9,17.2,25.9,34.6,33.6,54.7
			c4.2,11,6.8,22.5,8.4,34.1C235.2,273.2,228.7,317.6,215.7,359.3z"/>
	</g>
	<g>
		<path class="st0" d="M523.3,376.7c-0.2,0.3-0.3,0.6-0.5,0.8c-0.2,0.3-0.3,0.6-0.5,0.9c-0.9-1.2-1.6-2.3-2.4-3.5
			c0.3,0.2,0.5,0.3,0.8,0.5C521.5,375.9,522.4,376.3,523.3,376.7z"/>
	</g>
	<g>
		<path class="st2" d="M521.3,377c-0.9-0.9-1.8-1.6-1.8-2.3c0.2,0.1,0.3,0.2,0.5,0.3C520.3,375.7,520.8,376.4,521.3,377z"/>
		<g>
			<path class="st3" d="M522.3,376c-0.5-0.5-1-1-1.5-1.5c0.1,0.1,0.2,0.2,0.2,0.3c-0.1-0.1-0.2-0.3-0.3-0.4c0.1,0.1,0.1,0.2,0.2,0.4
				c0-0.1-0.1-0.2-0.1-0.3c0,0.1,0,0.3,0.1,0.4c0,0,0-0.1,0-0.1c-0.8,0.4-1.5,0.9-2.3,1.3c0.2,0.1,0.3,0.2,0.5,0.3
				c-0.2-0.2-0.4-0.4-0.5-0.5c0.4,0.7,0.9,1.4,1.3,2c0.1,0.2,0.2,0.3,0.4,0.4c0.1,0.1,0.3,0.2,0.5,0.3c0.2,0.1,0.4,0.1,0.6,0
				c0.2,0,0.4-0.1,0.6-0.2c0.3-0.2,0.6-0.5,0.7-0.9c0.1-0.4,0.1-0.8-0.2-1.2c-0.3-0.4-0.6-0.9-0.9-1.3c-0.1-0.2-0.3-0.4-0.4-0.6
				c0,0,0,0,0-0.1c0-0.1-0.1-0.1-0.1-0.2c-0.1-0.1-0.2-0.2-0.3-0.3c-0.1-0.1-0.2-0.1-0.3-0.2c-0.1-0.1-0.2-0.1-0.3-0.2
				c-0.5-0.3-1.1-0.3-1.5,0c-0.5,0.3-0.8,0.8-0.7,1.3c0,1.5,1.3,2.4,2.2,3.4c0.3,0.3,0.7,0.4,1.1,0.4c0.4,0,0.8-0.2,1.1-0.4
				c0.3-0.3,0.5-0.7,0.4-1.1C522.8,376.6,522.6,376.3,522.3,376z"/>
		</g>
	</g>
	<g>
		<path class="st0" d="M691,209.3L691,209.3c-6.3,24-20.8,45.9-41.6,60.3c-2.5,1.8-5.3,3.5-6.7,6.2c-1,2-1.3,4.2-1.4,6.4
			c-1.9,26.8,5.4,56.6-10.2,78.9c-9.5,13.5-25.9,21.3-42.6,24.1c-16.7,2.8-33.7,1.3-50.5-0.3c-4.8-0.4-11.4-4.2-15.1-7.3
			c0.2-0.3,0.3-0.6,0.5-0.8c-0.9-0.4-1.8-0.8-2.6-1.3c-0.3-0.1-0.5-0.3-0.8-0.5h0c-0.1-0.1-0.2-0.2-0.2-0.4
			c-42.4,21.9-86,43-133.2,49.6c-22.5,3.2-45.2,3-67.9,2.7c-36.2-0.5-72.4,5.6-108.5,6.5c6.3-14.4,11.3-29.3,16.4-44.2
			c7.2-21.1,14.4-42.4,18.1-64.4c5.1-30,3.8-60.7-0.7-90.8c-5.5-36.5-15.8-72.9-36-103.8c-16.4-25.2-33.9-52.1-59.3-65.4
			c3.8-2.8,7.7-5.3,11.7-7.6c19.8-11.4,42.7-16.6,65.3-19.6c21.4-2.8,43-3.7,64.6-2.7c16.1,0.8,32.3,2.6,47.8,6.9
			c14.7,4,28.6,10.1,42.6,16.2c31.2,13.7,62.7,27.5,91.9,44.8c3.2,11.7,7,23.1,13.1,33.5c7.1,12.1,17.7,22.8,30.7,27.7
			c0,0,0.1,0,0.1,0c1.9,0.7,3.9,1.3,5.9,1.8c0.4,0.1,0.8,0.2,1.2,0.3c4.3,0.8,9,0.9,12.9-1.2c2.5-1.4,4.5-3.7,6.3-5.9
			c6.6-7.8,13.3-15.8,16.4-25.5c2.6-8.2,2.4-16.9,3.4-25.4c1-8.8,3.4-17.4,7-25.4c5.7-5.6,11.2-11.3,16.5-17.1
			c8.2-8.9,17.1-18.7,29.3-20.5c9.8-1.5,19.7,2.8,27.9,8.2c11.1,7.3,20.7,17.6,24.3,30.1c4.8,16.9-2,35.5,3.9,52
			c3,8.6,9.2,15.8,13,24c3.5,7.4,5,15.6,6,23.7C691.5,191.8,691.8,200.7,691,209.3z"/>
	</g>
	<g>
		<path class="st0" d="M523.3,376.7c-0.2,0.3-0.3,0.6-0.5,0.8c-0.9-0.8-1.6-1.5-2.1-2.1C521.5,375.9,522.4,376.3,523.3,376.7z"/>
	</g>
	<g>
		<path class="st1" d="M569.5,82.8c-3.6,8.1-6,16.7-7,25.4c-1,8.5-0.8,17.2-3.4,25.4c-3.1,9.7-9.8,17.8-16.4,25.5
			c-1.9,2.2-3.8,4.5-6.3,5.9c-3.8,2.1-8.6,2-12.9,1.2c-0.4-0.1-0.8-0.2-1.2-0.3c-2-0.5-4-1-5.9-1.8c0,0-0.1,0-0.1,0
			c-13-4.9-23.6-15.5-30.7-27.7c-6.1-10.4-9.9-21.8-13.1-33.5c14.1,8.4,27.7,17.6,40.5,28C533,116.3,551.9,100.2,569.5,82.8z"/>
	</g>
	<g>
		<path class="st2" d="M305.4,463.9c5.4,2.7,10.7,5.5,16.1,8.2c5.4,2.8,11.1,5.6,17.2,5.8c6.7,0.2,13-2.9,19-5.9
			c5-2.5,10.1-5.1,14.1-9c4.6-4.5,7.4-10.8,7.7-17.3"/>
	</g>
	<g>
		<path class="st1" d="M356.9,229c29.2-10.8,60.4-16.2,91.5-15.9c6.5,0.1,13.2,0.4,18.9,3.5c10.1,5.5,14.2,18,15.3,29.5
			c2.7,27.4-6.1,54.5-14.7,80.7c-4.4,13.4-9.5,27.8-21.1,36c-10.1,7.2-23.4,8.3-35.8,6.9c-27.2-3-53.1-17-70.5-38.2"/>
		<g>
			<path class="st4" d="M357.7,231.9c26-9.6,53.6-14.9,81.3-15.7c6.5-0.2,13.4-0.6,19.9,0.7c5.5,1.1,10.1,3.6,13.5,7.9
				c3,3.8,4.8,8.7,6,13.5c1.4,5.8,1.8,11.7,1.8,17.8c0,14.1-2.6,27.9-6.3,41.4c-1.8,6.8-3.9,13.5-6.1,20.3c-1.9,5.9-3.8,11.9-6,17.7
				c-3.8,10.2-9.1,20.6-18.8,26.3c-10,6-22.6,6.2-33.8,4.7c-22.9-3.1-44.5-14.1-60.6-30.6c-2-2.1-3.9-4.2-5.8-6.5
				c-1-1.3-3.2-1.1-4.2,0c-1.2,1.2-1,3,0,4.2c15.5,18.9,37.7,32.3,61.7,37.4c12.1,2.6,25.4,3.6,37.4-0.3c6-2,11.6-5.2,16-9.7
				c4.2-4.2,7.4-9.3,10-14.6c2.6-5.5,4.7-11.2,6.6-17c2.3-6.8,4.5-13.5,6.5-20.3c4.3-14,7.8-28.4,9-43c1-12.7,0.7-26.5-4.7-38.2
				c-2.3-5.1-5.8-9.6-10.5-12.7c-5.6-3.7-12.5-4.7-19.1-4.9c-14.5-0.5-29,0.6-43.3,2.7c-14.2,2.1-28.3,5.3-42,9.7
				c-3.4,1.1-6.7,2.2-10,3.5c-1.5,0.6-2.6,2-2.1,3.7C354.4,231.2,356.2,232.4,357.7,231.9L357.7,231.9z"/>
		</g>
	</g>
	<g>
		<g>
			<path class="st3" d="M376.4,264.4c17.2,1.6,34.7,0.1,51.4-4.1c1.9-0.5,1.1-3.4-0.8-2.9c-16.5,4.2-33.7,5.6-50.6,4
				C374.5,261.2,374.5,264.2,376.4,264.4L376.4,264.4z"/>
		</g>
	</g>
	<g>
		<g>
			<path class="st3" d="M373.5,296.2c13.4,0.6,26.3,6.2,36,15.5c1.4,1.3,3.5-0.8,2.1-2.1c-10.2-9.9-23.9-15.7-38.1-16.4
				C371.5,293.1,371.5,296.1,373.5,296.2L373.5,296.2z"/>
		</g>
	</g>
	<g>
		<g>
			<path class="st3" d="M371.1,323.2c6.8,2.1,13,6.4,17.2,12.2c0.5,0.7,1.3,1,2.1,0.5c0.6-0.4,1-1.4,0.5-2.1
				c-4.7-6.4-11.4-11.2-19-13.6C370,319.7,369.2,322.6,371.1,323.2L371.1,323.2z"/>
		</g>
	</g>
	<g>
		<g>
			<path class="st3" d="M581.1,145.8c7.9-5.5,15.8-10.9,23.7-16.4c6.8-4.7,14.2-9.1,20.1-14.9c3-3,5.5-6.5,7-10.5
				c0.7-1.8-2.2-2.6-2.9-0.8c-2.6,6.9-8.6,11.6-14.4,15.7c-7.3,5.2-14.8,10.2-22.2,15.4c-4.3,3-8.6,5.9-12.9,8.9
				C578,144.3,579.5,146.9,581.1,145.8L581.1,145.8z"/>
		</g>
	</g>
	<g>
		<g>
			<path class="st3" d="M582.1,189.7c7.7-2.8,15.4-5.4,23.2-7.8c3.9-1.2,7.8-2.3,11.7-3.3c2-0.5,3.9-1,5.9-1.5
				c1.6-0.4,3.5-1.1,5.1-0.3c1.7,0.9,3.2-1.7,1.5-2.6c-3.4-1.8-7.7,0.1-11.1,1c-4.1,1.1-8.3,2.2-12.4,3.5
				c-8.3,2.5-16.5,5.2-24.6,8.2C579.5,187.5,580.2,190.4,582.1,189.7L582.1,189.7z"/>
		</g>
	</g>
	<g>
		<g>
			<path class="st3" d="M583.5,229.9c11.3,0.9,22,5.8,30.2,13.6c1.4,1.3,3.5-0.8,2.1-2.1c-8.7-8.4-20.2-13.5-32.3-14.5
				C581.6,226.7,581.6,229.7,583.5,229.9L583.5,229.9z"/>
		</g>
	</g>
	<g>
		<g>
			<path class="st3" d="M576.4,291.2c11.8,7.6,25.1,16.6,28.8,31c0.5,1.9,3.4,1.1,2.9-0.8c-3.9-15.2-17.7-24.7-30.2-32.8
				C576.3,287.5,574.8,290.1,576.4,291.2L576.4,291.2z"/>
		</g>
	</g>
	<g>
		<g>
			<path class="st3" d="M567.4,339.8c8.3,9.3,15.9,19.2,22.8,29.7c1.1,1.6,3.7,0.1,2.6-1.5c-7-10.6-14.8-20.8-23.3-30.3
				C568.2,336.2,566.1,338.4,567.4,339.8L567.4,339.8z"/>
		</g>
	</g>
	<g>
		<path class="st5" d="M147,216.2c-8,2-13.9,7.4-16,15.8c-2.1,8.4,2.5,17.7,10.1,21.8c4.6,2.5,10.3,3.1,15.1,1
			c2.6-1.2,7-3.4,8.8-5.6c5.2-6.3,7.3-16.5,4-24s-14.6-11-22.5-8.8"/>
		<g>
			<path class="st6" d="M146.6,214.8c-8.6,2.2-15.3,8.6-17.1,17.4c-1.9,8.9,2.8,18.4,10.6,22.8c4.4,2.5,9.7,3.4,14.6,2
				c2.2-0.6,4.3-1.8,6.3-2.9c1.9-1.1,3.9-2.4,5.3-4.1c5.6-6.9,7.9-17.9,3.8-26.1c-4.1-8.1-15.6-11.2-23.9-9
				c-1.9,0.5-1.1,3.4,0.8,2.9c6.5-1.7,14.7,0.2,19.1,5.4c2.4,2.8,3.2,6.9,3.1,10.5c-0.1,4.1-1.3,8.2-3.3,11.8
				c-1,1.6-2.1,3.1-3.6,4.3c-1.6,1.2-3.5,2.2-5.3,3.1c-4.1,2-8.4,2.2-12.7,0.7c-7.4-2.7-12.6-10.6-12.1-18.4
				c0.2-4.1,2.1-8.3,4.8-11.3c2.8-3.1,6.5-5.1,10.6-6.2C149.2,217.2,148.4,214.3,146.6,214.8L146.6,214.8z"/>
		</g>
	</g>
	<g>
		<path class="st7" d="M146.9,224.1c-5,2.1-6.9,8.3-6.3,13.5c0.6,5.1,5.5,9.8,10.6,9.1c2.3-0.3,4.3-1.5,6.1-3
			c2.1-1.7,4.1-3.8,4.9-6.4c1.3-4.5,0.2-8.8-3.2-12.1c-2.5-2.4-9-3-12-1"/>
	</g>
	<g>
		<path class="st8" d="M93.5,289.7c-3-3-5.4-3.5-9.6-4.3c-17-3.2-34-6.4-51-9.6c-7.3-1.4-15.9-2.4-21.1,2.8
			c-3.1,3.1-4.2,7.6-4.9,11.9c-0.5,3.6-0.7,7.6,1.5,10.5c2,2.5,5.4,3.5,8.5,4.1c14.8,2.8,30.1,0.8,44.4-4.1
			C79.5,294.7,80.5,292.7,93.5,289.7"/>
	</g>
	<g>
		<path class="st9" d="M93.5,289.7c-5.8,13.2-15,24.5-26.5,33.2c-7.3,5.5-15.4,9.8-23.5,13.9c-4.8,2.4-9.6,4.8-14.6,6.7
			c-2.6,1-5.4,1.9-8.2,1.8c-5.8-0.2-10.5-4.7-12.5-10.2c4.5-3.8,9.7-6.7,15.4-8c3.4-0.8,7-1,10.5-1.4c13.7-1.9,26.6-8.8,35.8-19
			c3.1-3.4,5.8-7.2,9.3-10.2c3.5-3,5.5-3.7,10.3-5.7L93.5,289.7z"/>
	</g>
	<g>
		<path class="st1" d="M244.6,324.9c-3.8,22-11,43.2-18.1,64.4c-5,14.9-10.1,29.8-16.4,44.2c-4.6,0.1-9.1,0.1-13.7,0
			c-3.2-0.1-6.5-0.1-9.8-0.1c11.2-24.1,21.3-48.7,29.2-74c12.9-41.8,19.4-86.1,13.3-129.4c-1.6-11.6-4.2-23.2-8.4-34.1
			c-7.7-20-20.8-37.5-33.6-54.7c-16.6-22.2-33.6-44.7-54.5-62.7c5.1-4.8,10.4-9.4,16-13.5c25.4,13.3,42.9,40.2,59.3,65.4
			c20.1,30.9,30.5,67.3,36,103.8C248.3,264.2,249.7,294.9,244.6,324.9z"/>
	</g>
	<g>
		<g>
			<path class="st3" d="M248.9,90.7c2-0.9,4.3,0.6,5.9,1.7c1.6,1.2,2.9,2.6,4,4.2c2.2,3.2,3.4,7,3.3,10.9
				c-0.1,7.7-5.6,14.8-12.9,17.1c-1.8,0.6-1.1,3.5,0.8,2.9c6.9-2.2,12.5-7.9,14.4-14.9c2-7.1-0.3-15-5.3-20.3
				c-2.9-3-7.4-6.1-11.7-4.1C245.6,88.9,247.2,91.5,248.9,90.7L248.9,90.7z"/>
		</g>
	</g>
	<g>
		<g>
			<path class="st3" d="M274,172.5c6.7,2.5,11.7,8.7,12.9,15.8c1.2,7.2-2.1,15-8,19.3c-1.5,1.1,0,3.7,1.5,2.6
				c5.4-4,8.9-10.1,9.6-16.8c0.7-6.5-1.7-13-6.1-17.7c-2.5-2.7-5.6-4.8-9.1-6.1C272.9,168.9,272.2,171.8,274,172.5L274,172.5z"/>
		</g>
	</g>
	<g>
		<g>
			<path class="st3" d="M290.7,243.5c7.9,9.8,9.1,24.3,3.8,35.6c-1.5,3.2-3.5,6.1-6,8.7c-1.4,1.4,0.8,3.5,2.1,2.1
				c9.7-9.9,12.6-25.4,8-38.3c-1.3-3.7-3.3-7.1-5.7-10.2C291.6,239.9,289.5,242,290.7,243.5L290.7,243.5z"/>
		</g>
	</g>
	<g>
		<g>
			<path class="st3" d="M283.6,339.7c4.8,13.1,6.5,29.3-3.9,40.2c-2.4,2.5-5.3,4.5-8.6,5.6c-1.8,0.6-1,3.5,0.8,2.9
				c6.5-2.2,11.6-7.1,14.8-13.1c3.6-6.9,4.5-14.7,3.5-22.3c-0.6-4.8-1.9-9.5-3.6-14.1C285.8,337.1,282.9,337.9,283.6,339.7
				L283.6,339.7z"/>
		</g>
	</g>
	<g>
		<g>
			<path class="st3" d="M187.7,57.9c8.5,3.6,14.3,13.1,13,22.4c-0.1,0.8,0.2,1.6,1,1.8c0.7,0.2,1.7-0.2,1.8-1
				c1.4-10.5-4.5-21.6-14.4-25.8c-0.8-0.3-1.6-0.2-2.1,0.5C186.8,56.5,187,57.6,187.7,57.9L187.7,57.9z"/>
		</g>
	</g>
	<g>
		<g>
			<path class="st3" d="M271.9,50.9c7.1,1.7,13.3,6.5,16.6,13c3.7,7.1,3.4,16-0.4,23c-0.9,1.7,1.7,3.2,2.6,1.5
				c3.3-6.2,4.3-13.4,2.6-20.2c-1.6-6.4-5.5-11.9-10.8-15.7c-2.9-2.1-6.3-3.6-9.8-4.5C270.8,47.6,270,50.5,271.9,50.9L271.9,50.9z"
				/>
		</g>
	</g>
	<g>
		<g>
			<path class="st3" d="M300.9,120.3c5.4,1.4,9,6.3,10.4,11.5c1.8,6.8-0.1,14.1-2.2,20.6c-0.6,1.8,2.3,2.6,2.9,0.8
				c2.3-7.3,4.3-15.4,2-22.9c-1.8-5.9-6.1-11.3-12.3-12.9C299.9,116.9,299.1,119.8,300.9,120.3L300.9,120.3z"/>
		</g>
	</g>
	<g>
		<g>
			<path class="st3" d="M328.8,191.3c9.7,9,11.2,25.5,3.1,36c-0.5,0.6-0.6,1.5,0,2.1c0.5,0.5,1.6,0.6,2.1,0
				c7.1-9.2,7.9-22.2,2.7-32.5c-1.5-2.9-3.4-5.5-5.8-7.7C329.5,187.9,327.4,190,328.8,191.3L328.8,191.3z"/>
		</g>
	</g>
	<g>
		<g>
			<path class="st3" d="M336.6,252.9c4.4,12.6,2,27-6.1,37.6c-0.5,0.6-0.1,1.7,0.5,2.1c0.8,0.5,1.6,0.1,2.1-0.5
				c8.6-11.1,11-26.6,6.4-39.9C338.9,250.3,336,251.1,336.6,252.9L336.6,252.9z"/>
		</g>
	</g>
	<g>
		<g>
			<path class="st3" d="M329.5,347.2c3.5,8.5,7,18.3,4.7,27.6c-1.7,7.1-6.8,13.7-14.4,14.9c-1.9,0.3-1.1,3.2,0.8,2.9
				c6.4-1,11.5-5.7,14.3-11.3c3.4-6.7,3.4-14.2,1.9-21.4c-1-4.6-2.7-9.1-4.5-13.5C331.6,344.6,328.7,345.4,329.5,347.2L329.5,347.2z
				"/>
		</g>
	</g>
	<g>
		<g>
			<path class="st3" d="M347.2,62.4c9.1,12.6,11.1,29.6,5.1,44c-0.3,0.8,0.3,1.6,1,1.8c0.9,0.2,1.5-0.3,1.8-1
				c6.3-15,4.2-33.1-5.4-46.3C348.7,59.4,346.1,60.9,347.2,62.4L347.2,62.4z"/>
		</g>
	</g>
	<g>
		<g>
			<path class="st3" d="M362.7,128.4c10.4,8.8,14.8,23.7,10.9,36.8c-0.6,1.9,2.3,2.6,2.9,0.8c4.2-14-0.5-30.2-11.7-39.7
				C363.4,125.1,361.2,127.2,362.7,128.4L362.7,128.4z"/>
		</g>
	</g>
	<g>
		<g>
			<path class="st3" d="M372.9,188.7c3.3,5.7,3.2,13-0.4,18.5c-1,1.6,1.6,3.1,2.6,1.5c4.1-6.5,4.2-15,0.4-21.6
				C374.5,185.5,371.9,187,372.9,188.7L372.9,188.7z"/>
		</g>
	</g>
	<g>
		<g>
			<path class="st3" d="M388.9,95.6c4.9,8.8,5.8,19.4,2.5,28.8c-0.6,1.8,2.3,2.6,2.9,0.8c3.6-10.2,2.5-21.7-2.8-31.1
				C390.5,92.4,388,93.9,388.9,95.6L388.9,95.6z"/>
		</g>
	</g>
	<g>
		<g>
			<path class="st3" d="M416.9,159.6c3.7,8.2,2.5,18.1-2.8,25.4c-1.1,1.6,1.5,3.1,2.6,1.5c6-8.2,6.9-19.2,2.8-28.4
				C418.7,156.3,416.1,157.8,416.9,159.6L416.9,159.6z"/>
		</g>
	</g>
	<g>
		<g>
			<path class="st3" d="M440.2,109.1c4.1,10.2,3.9,22-0.8,32c-0.8,1.7,1.8,3.3,2.6,1.5c5-10.7,5.5-23.3,1.1-34.3
				C442.3,106.5,439.4,107.3,440.2,109.1L440.2,109.1z"/>
		</g>
	</g>
	<g>
		<g>
			<path class="st3" d="M473.9,139.1c2,8.4,4.2,19.7-2.7,26.5c-1.4,1.4,0.7,3.5,2.1,2.1c7.8-7.7,5.7-19.9,3.5-29.4
				C476.4,136.4,473.5,137.2,473.9,139.1L473.9,139.1z"/>
		</g>
	</g>
	<g>
		<g>
			<path class="st3" d="M504.8,190.2c1.5,10.8-0.1,21.9-4.5,31.8c-0.8,1.7,1.8,3.3,2.6,1.5c4.8-10.7,6.5-22.5,4.9-34.2
				C507.4,187.4,504.5,188.3,504.8,190.2L504.8,190.2z"/>
		</g>
	</g>
	<g>
		<g>
			<path class="st3" d="M451.8,183.2c1.3,5-0.4,10.4-4.1,13.8c-1.4,1.3,0.7,3.4,2.1,2.1c4.5-4.2,6.4-10.8,4.9-16.7
				C454.2,180.5,451.3,181.3,451.8,183.2L451.8,183.2z"/>
		</g>
	</g>
	<g>
		<g>
			<path class="st3" d="M497.7,269.2c2.4,6.4,3,13.4,1.7,20.1c-0.4,1.9,2.5,2.7,2.9,0.8c1.5-7.3,0.9-14.8-1.7-21.7
				C499.9,266.7,497,267.4,497.7,269.2L497.7,269.2z"/>
		</g>
	</g>
	<g>
		<g>
			<path class="st3" d="M485,320.1c2.4,9.4,1,19.5-3.8,27.8c-1,1.7,1.6,3.2,2.6,1.5c5.3-9.1,6.7-20,4.1-30.2
				C487.4,317.5,484.5,318.2,485,320.1L485,320.1z"/>
		</g>
	</g>
	<g>
		<g>
			<path class="st3" d="M389.8,376.2c1.3,7.1,0.2,14.6-3.2,21c-0.9,1.7,1.7,3.2,2.6,1.5c3.8-7.2,5-15.4,3.5-23.3
				C392.3,373.5,389.4,374.3,389.8,376.2L389.8,376.2z"/>
		</g>
	</g>
	<g>
		<g>
			<path class="st3" d="M449,374.7c0.2,3-0.4,5.7-1.8,8.2c-0.4,0.7-0.2,1.7,0.5,2.1c0.7,0.4,1.6,0.2,2.1-0.5c1.6-3,2.4-6.4,2.2-9.8
				c-0.1-0.8-0.6-1.5-1.5-1.5C449.7,373.3,448.9,373.9,449,374.7L449,374.7z"/>
		</g>
	</g>
	<g>
		<g>
			<path class="st3" d="M231.4,445.3c5.3-0.7,9.5-4.2,12-8.8c3-5.4,3.3-11.8,3.7-17.8c0.1-1.9-2.9-1.9-3,0
				c-0.3,5.3-0.5,10.9-2.9,15.7c-1.9,3.8-5.3,7.3-9.7,7.9C229.5,442.5,229.5,445.5,231.4,445.3L231.4,445.3z"/>
		</g>
	</g>
	<g>
		<g>
			<path class="st3" d="M277.1,459.8c7.7-5,12.4-13.9,12-23.1c-0.1-1.9-3.1-1.9-3,0c0.3,8.1-3.7,16.1-10.5,20.5
				C274,458.3,275.5,460.9,277.1,459.8L277.1,459.8z"/>
		</g>
	</g>
	<g>
		<g>
			<path class="st3" d="M333.9,446c5.3-3,8.6-8.6,9.7-14.5c1.5-7.5-0.3-15-1.9-22.3c-0.4-1.9-3.3-1.1-2.9,0.8
				c1.5,6.6,3.2,13.6,2,20.3c-1,5.3-3.6,10.4-8.4,13.1C330.7,444.4,332.2,447,333.9,446L333.9,446z"/>
		</g>
	</g>
	<g>
		<g>
			<path class="st3" d="M416.9,428.5c4.3-8,5.2-17.7,2.3-26.3c-0.6-1.8-3.5-1-2.9,0.8c2.7,7.9,2,16.6-2,24
				C413.4,428.7,416,430.3,416.9,428.5L416.9,428.5z"/>
		</g>
	</g>
	<g>
		<path class="st2" d="M663.5,257.7c-2.8,4.8-5.9,11.8-6.5,17.3c-2.2,19.6,1.8,39.4,1.7,59.2c-0.1,19.8-5.6,41.3-21.8,52.8
			c-8,5.7-17.8,8.2-27.3,10.6c-9.5,2.4-19,4.8-28.5,7.3c-6,1.5-12.2,3.1-18.4,2.3c-13.6-1.7-30.5-15.4-40.3-28.7
			c-0.4-0.5-0.7-1-1-1.4c0,0,0,0,0,0c-0.5-0.7-1.4-1.6-1.8-2.3c1,0.6,2.6,1.5,3.8,2c5.9,2.6,13.9,4.7,19.4,5.2
			c15.9,1.5,32,3,47.7,0.3c15.7-2.7,31.3-10.3,40.2-23.5c14.7-21.8,7.8-50.8,9.6-77c0.2-2.1,0.4-4.4,1.4-6.3
			C642.9,272.8,657.5,261.7,663.5,257.7z"/>
	</g>
	<g>
		<path class="st3" d="M96.2,120.4c-0.3,4.4-0.6,8.6-1.7,12.1C81.9,172,61.3,208.5,38.5,243.4C49.5,199.2,69.3,157.1,96.2,120.4z"/>
	</g>
	<g>
		<path class="st1" d="M80.5,297.7c-3.5,3-7.7,5.5-10.8,9c-9.2,10.2-22.2,17.1-35.8,19c-3.5,0.5-7,0.7-10.5,1.4
			c-5.7,1.3-10.9,4.2-15.4,8c-1-2.7-1.4-5.7-1-8.6c1.2-8.6,7.8-15.6,15-20.4l67.2-15.4C86.5,293.7,84,294.7,80.5,297.7z"/>
	</g>
</g>
</svg>
