<?xml version="1.0" encoding="utf-8"?>
<!-- Generator: Adobe Illustrator 28.3.0, SVG Export Plug-In . SVG Version: 6.00 Build 0)  -->
<svg version="1.1" id="Layer_1" xmlns="http://www.w3.org/2000/svg" xmlns:xlink="http://www.w3.org/1999/xlink" x="0px" y="0px"
	 viewBox="0 0 700 488" style="enable-background:new 0 0 700 488;" xml:space="preserve">
<style type="text/css">
	.st0{fill:#E09027;}
	.st1{fill:#D38424;}
	.st2{fill:#B7711C;}
	.st3{fill:#EDA856;}
	.st4{fill:#AD6918;}
	.st5{fill:#F2BD7C;}
	.st6{fill:#9E5702;}
	.st7{fill:#C17923;}
	.st8{fill:#A85E05;}
	.st9{fill:#965500;}
</style>
<g>
	<g>
		<path class="st0" d="M285.8,58.2c12.4-3.5,24.7-7.1,37.1-10.6c11.3-3.2,22.6-6.5,34.1-8.8c15-3,30.3-4.3,45.6-5.6
			c10.4-0.8,20.7-1.7,31.1-1.9c37.7-0.8,75.6,6.5,110.4,21c-6.1-22.1-26.3-40.2-49.3-42.5c-11.9-1.2-23.8,1.4-35.8,2.5
			c-39.7,3.9-81.7-7.3-118.7,7.8c-11.1,4.5-21.2,11.3-31.2,18C300.7,43.9,291.8,50.3,285.8,58.2z"/>
	</g>
	<g>
		<path class="st1" d="M279.5,78.7l266-14c-0.3-3.2-0.7-9.3-1.6-12.4c-25.4-18.6-72.7-25.4-110.4-24.6c-10.4,0.2-21.6-0.8-32,0
			c-15.3,1.2-34,6-49,9c-11.5,2.3-21.7,5.8-33,9c-12.4,3.5-21.4,8.9-33.8,12.4C282,63,280.3,72.5,279.5,78.7z"/>
	</g>
	<g>
		<path class="st2" d="M175.7,378.5c18.5,31,56.8,45.9,91.8,57.4c22.3,7.4,44.7,14.6,67.5,20.1c67.2,16.4,137.9,18.3,205.9,5.6
			c21.8-4.1,43.8-9.8,62.6-21.6c15.9-10,28.9-24,41.1-38.2c6.6-7.8,13.2-15.8,17.4-25.1c2.5-5.4,4.1-11.2,5.2-17.1
			c-27.8,27.1-56.5,57.7-92.4,67.7c-23.1,6.5-49.2,5.8-73.2,6.2c-40.7,0.7-81.5-7.1-122.2-6.5c-22.7,0.3-45.4,0.5-67.9-2.7
			c-47.1-6.6-90.8-27.8-133.2-49.6C177.5,375.9,176.7,377.2,175.7,378.5z"/>
	</g>
	<g>
		<path class="st0" d="M482.3,359.3c7.8,25.4,18,49.9,29.2,74c21.2-0.2,43.4-0.5,63.4-6c35.9-10.1,64.7-40.6,92.4-67.7
			c1.3-6.9,1.8-13.9,2.1-20.9c1.4-32.1-2-64.2-9.8-95.3c0,0,0,0,0,0c-22.8-34.8-43.4-71.3-56.1-110.9c-1.1-3.5-1.4-7.7-1.7-12.1
			c-6.9-9.4-14.2-18.5-22-27.1c-4.6-5.1-9.3-10.1-14.3-14.8c-20.9,18-37.9,40.5-54.5,62.7c-12.9,17.2-25.9,34.6-33.6,54.7
			c-4.2,11-6.8,22.5-8.4,34.1C462.8,273.2,469.3,317.6,482.3,359.3z"/>
	</g>
	<g>
		<path class="st0" d="M174.7,376.7c0.2,0.3,0.3,0.6,0.5,0.8c0.2,0.3,0.3,0.6,0.5,0.9c0.9-1.2,1.6-2.3,2.4-3.5
			c-0.3,0.2-0.5,0.3-0.8,0.5C176.5,375.9,175.6,376.3,174.7,376.7z"/>
	</g>
	<g>
		<path class="st2" d="M176.7,377c0.9-0.9,1.8-1.6,1.8-2.3c-0.2,0.1-0.3,0.2-0.5,0.3C177.7,375.7,177.2,376.4,176.7,377z"/>
		<g>
			<path class="st3" d="M177.8,378.1c0.9-1,2.2-1.9,2.2-3.4c0-0.5-0.3-1-0.7-1.3c-0.5-0.3-1.1-0.3-1.5,0c-0.1,0.1-0.2,0.1-0.3,0.2
				c-0.1,0-0.1,0.1-0.2,0.1c-0.2,0.2-0.4,0.4-0.6,0.6c-0.1,0.2-0.3,0.4-0.4,0.7c-0.3,0.4-0.6,0.9-0.9,1.3c-0.1,0.2-0.2,0.4-0.2,0.6
				c0,0.2,0,0.4,0,0.6c0.1,0.3,0.4,0.7,0.7,0.9c0.3,0.2,0.8,0.3,1.2,0.2c0.1-0.1,0.2-0.1,0.4-0.2c0.2-0.1,0.4-0.3,0.5-0.5
				c0.5-0.7,0.9-1.3,1.3-2c-0.2,0.2-0.4,0.4-0.5,0.5c0.2-0.1,0.3-0.2,0.5-0.3c-0.8-0.4-1.5-0.9-2.3-1.3c0,0,0,0.1,0,0.1
				c0-0.1,0-0.3,0.1-0.4c0,0.1,0,0.2-0.1,0.3c0.1-0.1,0.1-0.2,0.2-0.4c-0.1,0.1-0.2,0.3-0.3,0.4c0.1-0.1,0.2-0.2,0.2-0.3
				c-0.4,0.6-1,1-1.5,1.5c-0.3,0.3-0.4,0.7-0.4,1.1c0,0.4,0.2,0.8,0.4,1.1c0.3,0.3,0.7,0.5,1.1,0.4
				C177.1,378.5,177.5,378.4,177.8,378.1z"/>
		</g>
	</g>
	<g>
		<path class="st0" d="M7,209.3L7,209.3c6.3,24,20.8,45.9,41.6,60.3c2.5,1.8,5.3,3.5,6.7,6.2c1,2,1.3,4.2,1.4,6.4
			c1.9,26.8-5.4,56.6,10.2,78.9c9.5,13.5,25.9,21.3,42.6,24.1c16.7,2.8,33.7,1.3,50.5-0.3c4.8-0.4,11.4-4.2,15.1-7.3
			c-0.2-0.3-0.3-0.6-0.5-0.8c0.9-0.4,1.8-0.8,2.6-1.3c0.3-0.1,0.5-0.3,0.8-0.5h0c0.1-0.1,0.2-0.2,0.2-0.4
			c42.4,21.9,86,43,133.2,49.6c22.5,3.2,45.2,3,67.9,2.7c36.2-0.5,72.4,5.6,108.5,6.5c-6.3-14.4-11.3-29.3-16.4-44.2
			c-7.2-21.1-14.4-42.4-18.1-64.4c-5.1-30-3.8-60.7,0.7-90.8c5.5-36.5,15.8-72.9,36-103.8c16.4-25.2,33.9-52.1,59.3-65.4
			c-3.8-2.8-7.7-5.3-11.7-7.6c-19.8-11.4-42.7-16.6-65.4-19.6c-21.4-2.8-43-3.7-64.6-2.7c-16.1,0.8-32.3,2.6-47.8,6.9
			c-14.7,4-28.6,10.1-42.6,16.2c-31.2,13.7-62.7,27.5-91.9,44.8c-3.2,11.7-7,23.1-13.1,33.5c-7.1,12.1-17.7,22.8-30.7,27.7
			c0,0-0.1,0-0.1,0c-1.9,0.7-3.9,1.3-5.9,1.8c-0.4,0.1-0.8,0.2-1.2,0.3c-4.3,0.8-9,0.9-12.9-1.2c-2.5-1.4-4.5-3.7-6.3-5.9
			c-6.6-7.8-13.3-15.8-16.4-25.5c-2.6-8.2-2.4-16.9-3.4-25.4c-1-8.8-3.4-17.4-7-25.4c-5.7-5.6-11.2-11.3-16.5-17.1
			c-8.2-8.9-17.1-18.7-29.3-20.5C72.8,43.7,63,48,54.8,53.4C43.7,60.8,34.1,71,30.5,83.5c-4.8,16.9,2,35.5-3.9,52
			c-3,8.6-9.2,15.8-13,24c-3.5,7.4-5,15.6-6,23.7C6.5,191.8,6.2,200.7,7,209.3z"/>
	</g>
	<g>
		<path class="st0" d="M174.7,376.7c0.2,0.3,0.3,0.6,0.5,0.8c0.9-0.8,1.6-1.5,2.1-2.1C176.5,375.9,175.6,376.3,174.7,376.7z"/>
	</g>
	<g>
		<path class="st1" d="M128.5,82.8c3.6,8.1,6,16.7,7,25.4c1,8.5,0.8,17.2,3.4,25.4c3.1,9.7,9.8,17.8,16.4,25.5
			c1.9,2.2,3.8,4.5,6.3,5.9c3.8,2.1,8.6,2,12.9,1.2c0.4-0.1,0.8-0.2,1.2-0.3c2-0.5,4-1,5.9-1.8c0,0,0.1,0,0.1,0
			c13-4.9,23.6-15.5,30.7-27.7c6.1-10.4,9.9-21.8,13.1-33.5c-14.1,8.4-27.7,17.6-40.5,28C165,116.3,146.1,100.2,128.5,82.8z"/>
	</g>
	<g>
		<path class="st2" d="M392.6,463.9c-5.4,2.7-10.7,5.5-16.1,8.2c-5.4,2.8-11.1,5.6-17.2,5.8c-6.7,0.2-13-2.9-19-5.9
			c-5-2.5-10.1-5.1-14.1-9c-4.6-4.5-7.4-10.8-7.7-17.3"/>
	</g>
	<g>
		<path class="st1" d="M341.1,229c-29.2-10.8-60.4-16.2-91.5-15.9c-6.5,0.1-13.2,0.4-18.9,3.5c-10.1,5.5-14.2,18-15.3,29.5
			c-2.7,27.4,6.1,54.5,14.7,80.7c4.4,13.4,9.5,27.8,21.1,36c10.1,7.2,23.4,8.3,35.8,6.9c27.2-3,53.1-17,70.5-38.2"/>
		<g>
			<path class="st4" d="M341.9,226.1c-27.3-10-56.2-15.4-85.3-16c-6.8-0.1-13.8-0.3-20.4,1.2c-6,1.4-11.3,4.7-15.1,9.5
				c-7.6,9.7-9.3,22.8-9.4,34.8c-0.1,14.6,2.6,29.2,6.4,43.3c1.9,7,4.1,14,6.3,20.9c2,6.1,3.9,12.3,6.3,18.3
				c4.3,11.3,10.4,22.4,21.1,28.8c11,6.5,24.5,7.1,36.8,5.5c24.4-3.2,47.5-14.6,64.7-32.2c2.1-2.1,4-4.3,5.9-6.6c1-1.2,1.2-3,0-4.2
				c-1.1-1.1-3.2-1.3-4.2,0c-14.7,17.9-35.3,30.5-57.9,35.6c-11.3,2.5-23.7,3.6-34.9,0.1c-5.3-1.7-10.1-4.6-14-8.6
				c-3.8-3.9-6.6-8.6-9-13.5c-2.4-5.1-4.3-10.5-6.1-15.9c-2.2-6.6-4.4-13.2-6.4-19.8c-4-13.3-7.5-26.9-8.6-40.7
				c-0.6-6.9-0.6-14,0.1-20.9c0.5-4.7,1.7-10.4,3.7-14.8c2.1-4.6,5-8.5,9.1-11.1c5.2-3.2,11.5-3.6,17.5-3.7
				c27.7-0.4,55.4,3.8,81.8,12.4c3.3,1.1,6.6,2.2,9.8,3.4c1.5,0.6,3.3-0.6,3.7-2.1C344.4,228.1,343.4,226.6,341.9,226.1L341.9,226.1
				z"/>
		</g>
	</g>
	<g>
		<g>
			<path class="st3" d="M321.6,261.4c-17,1.5-34.1,0.2-50.6-4c-1.9-0.5-2.7,2.4-0.8,2.9c16.8,4.3,34.2,5.7,51.4,4.1
				C323.5,264.2,323.5,261.2,321.6,261.4L321.6,261.4z"/>
		</g>
	</g>
	<g>
		<g>
			<path class="st3" d="M324.5,293.2c-14.2,0.7-27.8,6.6-38.1,16.4c-1.4,1.3,0.7,3.5,2.1,2.1c9.6-9.3,22.6-14.9,36-15.5
				C326.5,296.1,326.5,293.1,324.5,293.2L324.5,293.2z"/>
		</g>
	</g>
	<g>
		<g>
			<path class="st3" d="M326.1,320.3c-7.6,2.4-14.3,7.2-19,13.6c-0.5,0.7-0.1,1.7,0.5,2.1c0.8,0.4,1.6,0.1,2.1-0.5
				c4.2-5.8,10.4-10.1,17.2-12.2C328.8,322.6,328,319.7,326.1,320.3L326.1,320.3z"/>
		</g>
	</g>
	<g>
		<g>
			<path class="st3" d="M118.4,143.2c-7.6-5.2-15.1-10.4-22.7-15.7c-3.7-2.6-7.4-5.1-11.1-7.7c-3-2.1-6-4.3-8.7-6.8
				c-2.9-2.8-5.5-6-7-9.8c-0.7-1.8-3.6-1-2.9,0.8c2.7,7.2,8.5,12.3,14.6,16.7c7.5,5.4,15.2,10.5,22.7,15.7c4.5,3.1,9,6.2,13.5,9.3
				C118.5,146.9,120,144.3,118.4,143.2L118.4,143.2z"/>
		</g>
	</g>
	<g>
		<g>
			<path class="st3" d="M116.7,186.8c-8.1-3-16.3-5.7-24.6-8.2c-4.1-1.2-8.2-2.4-12.4-3.5c-3.4-0.9-7.7-2.7-11.1-1
				c-1.7,0.9-0.2,3.5,1.5,2.6c1.5-0.8,3.5-0.1,5.1,0.3c1.9,0.5,3.8,1,5.6,1.5c4,1.1,7.9,2.2,11.9,3.4c7.8,2.4,15.6,4.9,23.2,7.8
				C117.8,190.4,118.5,187.5,116.7,186.8L116.7,186.8z"/>
		</g>
	</g>
	<g>
		<g>
			<path class="st3" d="M114.5,226.9c-12.1,1-23.6,6.1-32.3,14.5c-1.4,1.3,0.7,3.5,2.1,2.1c8.1-7.8,18.9-12.7,30.2-13.6
				C116.4,229.7,116.4,226.7,114.5,226.9L114.5,226.9z"/>
		</g>
	</g>
	<g>
		<g>
			<path class="st3" d="M120.1,288.6c-12.4,8-26.3,17.6-30.2,32.8c-0.5,1.9,2.4,2.7,2.9,0.8c3.7-14.4,17-23.4,28.8-31
				C123.2,290.1,121.7,287.5,120.1,288.6L120.1,288.6z"/>
		</g>
	</g>
	<g>
		<g>
			<path class="st3" d="M128.5,337.7c-8.5,9.5-16.3,19.6-23.3,30.3c-1.1,1.6,1.5,3.1,2.6,1.5c6.9-10.4,14.5-20.3,22.8-29.7
				C131.9,338.4,129.8,336.2,128.5,337.7L128.5,337.7z"/>
		</g>
	</g>
	<g>
		<path class="st5" d="M551,216.2c8,2,13.9,7.4,16,15.8c2.1,8.4-2.5,17.7-10.1,21.8c-4.6,2.5-10.3,3.1-15.1,1
			c-2.6-1.2-7-3.4-8.8-5.6c-5.2-6.3-7.3-16.5-4-24c3.3-7.5,14.6-11,22.5-8.8"/>
		<g>
			<path class="st6" d="M550.6,217.7c7.4,1.9,13.1,7.2,14.9,14.7c1.9,7.6-2.2,15.9-8.8,19.8c-3.9,2.3-8.7,3.1-13,1.8
				c-1.9-0.6-3.7-1.6-5.4-2.6c-1.7-1-3.3-2-4.5-3.5c-4.7-5.9-6.9-15.8-3.1-22.7c3.6-6.7,13.4-9.2,20.4-7.3c1.9,0.5,2.7-2.4,0.8-2.9
				c-7.5-2-17.3,0.3-22.3,6.5c-5.8,7.1-4.2,18.4,0.2,25.8c1.1,1.9,2.4,3.5,4.2,4.8c1.8,1.4,3.8,2.5,5.9,3.5
				c4.7,2.2,9.8,2.6,14.7,0.8c8.5-3.1,14.7-11.8,14.4-21c-0.2-4.9-2.2-9.7-5.4-13.4c-3.1-3.7-7.5-6.1-12.2-7.3
				C549.6,214.3,548.8,217.2,550.6,217.7L550.6,217.7z"/>
		</g>
	</g>
	<g>
		<path class="st7" d="M551.1,224.1c5,2.1,6.9,8.3,6.3,13.5s-5.5,9.8-10.6,9.1c-2.3-0.3-4.3-1.5-6.1-3c-2.1-1.7-4.1-3.8-4.9-6.4
			c-1.3-4.5-0.2-8.8,3.2-12.1c2.5-2.4,9-3,12-1"/>
	</g>
	<g>
		<path class="st8" d="M604.5,289.7c3-3,5.4-3.5,9.6-4.3c17-3.2,34-6.4,51-9.6c7.3-1.4,15.9-2.4,21.1,2.8c3.1,3.1,4.2,7.6,4.9,11.9
			c0.5,3.6,0.7,7.6-1.5,10.5c-2,2.5-5.4,3.5-8.5,4.1c-14.8,2.8-30.1,0.8-44.4-4.1C618.5,294.7,617.5,292.7,604.5,289.7"/>
	</g>
	<g>
		<path class="st9" d="M604.5,289.7c5.8,13.2,15,24.5,26.5,33.2c7.3,5.5,15.4,9.8,23.5,13.9c4.8,2.4,9.6,4.8,14.6,6.7
			c2.6,1,5.4,1.9,8.2,1.8c5.8-0.2,10.5-4.7,12.5-10.2c-4.5-3.8-9.7-6.7-15.4-8c-3.4-0.8-7-1-10.5-1.4c-13.7-1.9-26.6-8.8-35.8-19
			c-3.1-3.4-5.8-7.2-9.3-10.2c-3.5-3-5.5-3.7-10.3-5.7L604.5,289.7z"/>
	</g>
	<g>
		<path class="st1" d="M453.4,324.9c3.8,22,11,43.2,18.1,64.4c5,14.9,10.1,29.8,16.4,44.2c4.6,0.1,9.1,0.1,13.7,0
			c3.2-0.1,6.5-0.1,9.8-0.1c-11.2-24.1-21.3-48.7-29.2-74c-12.9-41.8-19.4-86.1-13.3-129.4c1.6-11.6,4.2-23.2,8.4-34.1
			c7.7-20,20.8-37.5,33.6-54.7c16.6-22.2,33.6-44.7,54.5-62.7c-5.1-4.8-10.4-9.4-16-13.5c-25.4,13.3-42.9,40.2-59.3,65.4
			c-20.1,30.9-30.5,67.3-36,103.8C449.7,264.2,448.3,294.9,453.4,324.9z"/>
	</g>
	<g>
		<g>
			<path class="st3" d="M450.6,88.1c-3.8-1.8-7.8,0.5-10.6,3.1c-2.7,2.4-4.7,5.6-5.9,9c-2.5,7.1-0.9,14.7,3.8,20.5
				c2.6,3.2,6.2,5.5,10.1,6.8c1.8,0.6,2.6-2.3,0.8-2.9c-7.3-2.3-12.8-9.4-12.9-17.1c0-3.9,1.2-7.7,3.3-10.9c1.1-1.6,2.5-3.1,4-4.2
				c1.5-1.2,3.9-2.6,5.9-1.7C450.8,91.5,452.4,88.9,450.6,88.1L450.6,88.1z"/>
		</g>
	</g>
	<g>
		<g>
			<path class="st3" d="M423.3,169.6c-6.1,2.3-11,7-13.6,13c-2.6,6.1-2.2,13,0.7,19c1.7,3.4,4.2,6.3,7.3,8.6
				c1.6,1.1,3.1-1.5,1.5-2.6c-5.9-4.3-9.2-12.1-8-19.3c1.1-7,6.2-13.3,12.9-15.8C425.8,171.8,425.1,168.9,423.3,169.6L423.3,169.6z"
				/>
		</g>
	</g>
	<g>
		<g>
			<path class="st3" d="M405.1,241.4c-8.8,10.8-10.1,26.3-4.4,38.9c1.6,3.6,3.9,6.8,6.6,9.6c1.4,1.4,3.5-0.7,2.1-2.1
				c-8.9-9.1-11.4-23.2-7.3-35.1c1.2-3.3,2.9-6.5,5.1-9.2C408.5,242,406.4,239.9,405.1,241.4L405.1,241.4z"/>
		</g>
	</g>
	<g>
		<g>
			<path class="st3" d="M411.6,338.9c-2.9,8-4.7,16.6-3.6,25.1c0.9,6.9,3.8,13.5,8.7,18.4c2.7,2.7,6,4.8,9.6,6
				c1.8,0.6,2.6-2.3,0.8-2.9c-5.8-2-10.3-6.6-13.1-12c-3.3-6.4-3.9-13.8-2.9-20.8c0.6-4.4,1.9-8.8,3.4-13
				C415.1,337.9,412.2,337.1,411.6,338.9L411.6,338.9z"/>
		</g>
	</g>
	<g>
		<g>
			<path class="st3" d="M508.7,55.3c-9.9,4.2-15.8,15.2-14.4,25.8c0.1,0.8,1.1,1.2,1.8,1c0.9-0.2,1.2-1,1-1.8
				c-1.3-9.3,4.5-18.7,13-22.4c0.8-0.3,0.9-1.4,0.5-2.1C510.4,55.1,509.5,55,508.7,55.3L508.7,55.3z"/>
		</g>
	</g>
	<g>
		<g>
			<path class="st3" d="M425.3,48c-13.1,3.1-22.4,15.6-21.3,29.1c0.3,4,1.4,7.8,3.3,11.3c0.9,1.7,3.5,0.2,2.6-1.5
				c-3.8-7-4.1-15.9-0.4-23c3.3-6.5,9.5-11.3,16.6-13C428,50.5,427.2,47.6,425.3,48L425.3,48z"/>
		</g>
	</g>
	<g>
		<g>
			<path class="st3" d="M396.3,117.4c-6.2,1.6-10.5,7-12.3,12.9c-2.3,7.5-0.3,15.6,2,22.9c0.6,1.8,3.5,1.1,2.9-0.8
				c-2.1-6.6-4-13.8-2.2-20.6c1.4-5.2,5-10.1,10.4-11.5C398.9,119.8,398.2,116.9,396.3,117.4L396.3,117.4z"/>
		</g>
	</g>
	<g>
		<g>
			<path class="st3" d="M367.1,189.2c-8.4,7.9-11.3,20.8-7.7,31.7c1,3.1,2.6,6,4.6,8.6c0.5,0.6,1.6,0.5,2.1,0c0.6-0.6,0.5-1.5,0-2.1
				c-8.1-10.5-6.6-27,3.1-36C370.6,190,368.5,187.9,367.1,189.2L367.1,189.2z"/>
		</g>
	</g>
	<g>
		<g>
			<path class="st3" d="M358.5,252.1c-4.6,13.3-2.1,28.7,6.4,39.9c0.5,0.6,1.3,1,2.1,0.5c0.6-0.4,1-1.4,0.5-2.1
				c-8.1-10.6-10.5-24.9-6.1-37.6C362,251.1,359.1,250.3,358.5,252.1L358.5,252.1z"/>
		</g>
	</g>
	<g>
		<g>
			<path class="st3" d="M365.6,346.4c-3.1,7.6-5.9,15.8-5.4,24.2c0.4,6.5,3,12.9,7.8,17.4c2.6,2.4,5.8,4.1,9.3,4.6
				c1.9,0.3,2.7-2.6,0.8-2.9c-7.5-1.2-12.6-7.8-14.4-14.9c-2.3-9.3,1.2-19,4.7-27.6C369.3,345.4,366.4,344.6,365.6,346.4
				L365.6,346.4z"/>
		</g>
	</g>
	<g>
		<g>
			<path class="st3" d="M348.2,60.9c-9.5,13.2-11.6,31.3-5.4,46.3c0.3,0.8,1,1.3,1.8,1c0.7-0.2,1.4-1.1,1-1.8
				c-6-14.4-4.1-31.4,5.1-44C351.9,60.9,349.3,59.4,348.2,60.9L348.2,60.9z"/>
		</g>
	</g>
	<g>
		<g>
			<path class="st3" d="M333.2,126.3c-11.2,9.5-15.9,25.7-11.7,39.7c0.6,1.8,3.5,1.1,2.9-0.8c-3.9-13.1,0.5-27.9,10.9-36.8
				C336.8,127.2,334.7,125.1,333.2,126.3L333.2,126.3z"/>
		</g>
	</g>
	<g>
		<g>
			<path class="st3" d="M322.5,187.1c-3.8,6.6-3.7,15.1,0.4,21.6c1,1.6,3.6,0.1,2.6-1.5c-3.5-5.6-3.7-12.8-0.4-18.5
				C326.1,187,323.5,185.5,322.5,187.1L322.5,187.1z"/>
		</g>
	</g>
	<g>
		<g>
			<path class="st3" d="M306.5,94.1c-5.3,9.4-6.4,20.9-2.8,31.1c0.6,1.8,3.5,1,2.9-0.8c-3.3-9.5-2.5-20.1,2.5-28.8
				C310,93.9,307.5,92.4,306.5,94.1L306.5,94.1z"/>
		</g>
	</g>
	<g>
		<g>
			<path class="st3" d="M278.5,158.1c-4.1,9.2-3.2,20.2,2.8,28.4c1.1,1.5,3.7,0,2.6-1.5c-5.3-7.2-6.5-17.1-2.8-25.4
				C281.9,157.8,279.3,156.3,278.5,158.1L278.5,158.1z"/>
		</g>
	</g>
	<g>
		<g>
			<path class="st3" d="M254.9,108.3c-4.4,11-3.9,23.6,1.1,34.3c0.8,1.7,3.4,0.2,2.6-1.5c-4.7-10-4.9-21.8-0.8-32
				C258.6,107.3,255.7,106.5,254.9,108.3L254.9,108.3z"/>
		</g>
	</g>
	<g>
		<g>
			<path class="st3" d="M221.2,138.3c-2.2,9.6-4.3,21.7,3.5,29.4c1.4,1.4,3.5-0.8,2.1-2.1c-6.9-6.8-4.7-18.1-2.7-26.5
				C224.5,137.2,221.6,136.4,221.2,138.3L221.2,138.3z"/>
		</g>
	</g>
	<g>
		<g>
			<path class="st3" d="M190.3,189.4c-1.6,11.6,0,23.4,4.9,34.2c0.8,1.8,3.4,0.2,2.6-1.5c-4.5-9.9-6.1-21.1-4.5-31.8
				c0.1-0.8-0.2-1.6-1-1.8C191.5,188.1,190.4,188.6,190.3,189.4L190.3,189.4z"/>
		</g>
	</g>
	<g>
		<g>
			<path class="st3" d="M243.3,182.4c-1.5,6,0.4,12.6,4.9,16.7c1.4,1.3,3.5-0.8,2.1-2.1c-3.8-3.5-5.4-8.9-4.1-13.8
				C246.7,181.3,243.8,180.5,243.3,182.4L243.3,182.4z"/>
		</g>
	</g>
	<g>
		<g>
			<path class="st3" d="M197.4,268.4c-2.6,6.9-3.2,14.5-1.7,21.7c0.4,1.9,3.3,1.1,2.9-0.8c-1.4-6.7-0.7-13.7,1.7-20.1
				C201,267.4,198.1,266.7,197.4,268.4L197.4,268.4z"/>
		</g>
	</g>
	<g>
		<g>
			<path class="st3" d="M210.1,319.3c-2.6,10.1-1.1,21.1,4.1,30.2c1,1.7,3.6,0.2,2.6-1.5c-4.9-8.4-6.2-18.5-3.8-27.8
				C213.5,318.3,210.6,317.5,210.1,319.3L210.1,319.3z"/>
		</g>
	</g>
	<g>
		<g>
			<path class="st3" d="M305.3,375.4c-1.5,8-0.3,16.2,3.5,23.3c0.9,1.7,3.5,0.2,2.6-1.5c-3.4-6.4-4.5-13.9-3.2-21
				C308.6,374.3,305.7,373.5,305.3,375.4L305.3,375.4z"/>
		</g>
	</g>
	<g>
		<g>
			<path class="st3" d="M246,374.7c-0.2,3.4,0.6,6.8,2.2,9.8c0.4,0.7,1.4,1,2.1,0.5c0.7-0.4,0.9-1.3,0.5-2.1c-1.4-2.5-2-5.3-1.8-8.2
				c0.1-0.8-0.7-1.5-1.5-1.5C246.7,373.3,246.1,373.9,246,374.7L246,374.7z"/>
		</g>
	</g>
	<g>
		<g>
			<path class="st3" d="M466.6,442.3c-4.4-0.6-7.8-4.1-9.7-7.9c-2.4-4.8-2.6-10.4-2.9-15.7c-0.1-1.9-3.1-1.9-3,0
				c0.3,6.1,0.7,12.4,3.7,17.8c2.5,4.6,6.7,8.1,12,8.8C468.5,445.5,468.5,442.5,466.6,442.3L466.6,442.3z"/>
		</g>
	</g>
	<g>
		<g>
			<path class="st3" d="M422.4,457.2c-6.8-4.4-10.8-12.4-10.5-20.5c0.1-1.9-2.9-1.9-3,0c-0.4,9.2,4.3,18.1,12,23.1
				C422.5,460.9,424,458.3,422.4,457.2L422.4,457.2z"/>
		</g>
	</g>
	<g>
		<g>
			<path class="st3" d="M365.6,443.4c-4.8-2.7-7.5-7.8-8.4-13.1c-1.2-6.8,0.5-13.8,2-20.3c0.4-1.9-2.5-2.7-2.9-0.8
				c-1.7,7.3-3.4,14.8-1.9,22.3c1.2,5.9,4.4,11.5,9.7,14.5C365.8,447,367.3,444.4,365.6,443.4L365.6,443.4z"/>
		</g>
	</g>
	<g>
		<g>
			<path class="st3" d="M283.7,427c-4-7.4-4.6-16.1-2-24c0.6-1.8-2.3-2.6-2.9-0.8c-2.9,8.6-2.1,18.3,2.3,26.3
				C282,430.2,284.6,428.7,283.7,427L283.7,427z"/>
		</g>
	</g>
	<g>
		<path class="st2" d="M34.5,257.7c2.8,4.8,5.9,11.8,6.5,17.3c2.2,19.6-1.8,39.4-1.7,59.2C39.5,354,45,375.6,61.2,387
			c8,5.7,17.8,8.2,27.3,10.6c9.5,2.4,19,4.8,28.5,7.3c6,1.5,12.2,3.1,18.4,2.3c13.6-1.7,30.5-15.4,40.3-28.7c0.4-0.5,0.7-1,1-1.4
			c0,0,0,0,0,0c0.5-0.7,1.4-1.6,1.8-2.3c-1,0.6-2.6,1.5-3.8,2c-5.9,2.6-13.9,4.7-19.4,5.2c-15.9,1.5-32,3-47.7,0.3
			c-15.7-2.7-31.3-10.3-40.2-23.5c-14.7-21.8-7.8-50.8-9.6-77c-0.2-2.1-0.4-4.4-1.4-6.3C55.1,272.8,40.5,261.7,34.5,257.7z"/>
	</g>
	<g>
		<path class="st3" d="M601.8,120.4c0.3,4.4,0.6,8.6,1.7,12.1c12.6,39.6,33.2,76.1,56.1,110.9C648.5,199.2,628.7,157.1,601.8,120.4z
			"/>
	</g>
	<g>
		<path class="st1" d="M617.5,297.7c3.5,3,7.7,5.5,10.8,9c9.2,10.2,22.2,17.1,35.8,19c3.5,0.5,7,0.7,10.5,1.4
			c5.7,1.3,10.9,4.2,15.4,8c1-2.7,1.4-5.7,1-8.6c-1.2-8.6-7.8-15.6-15-20.4l-67.2-15.4C611.5,293.7,614,294.7,617.5,297.7z"/>
	</g>
</g>
</svg>
